<?xml version="1.0" encoding="UTF-8" standalone="no"?>
<svg viewBox="0 0 78.889778 49.604248" width="78.889778" height="49.604248" version="1.1" id="svg12"
    xmlns="http://www.w3.org/2000/svg" xmlns:svg="http://www.w3.org/2000/svg">
    <defs id="defs6">
        <mask id="feather-cuts">
            <rect width="100" height="100" fill="#ffffff" id="rect1" x="0" y="0" />
            <polygon points="22,20 40,34 24,28 " fill="#000000" id="polygon1" />
            <polygon points="28,38 44,48 30,44 " fill="#000000" id="polygon2" />
            <polygon points="36,53 47,60 38,58 " fill="#000000" id="polygon3" />
            <polygon points="60,22 49,34 56,28 " fill="#000000" id="polygon4" />
            <polygon points="62,40 51,49 58,45 " fill="#000000" id="polygon5" />
            <polygon points="58,55 51,62 55,59 " fill="#000000" id="polygon6" />
        </mask>
        <mask id="nib-hole">
            <rect width="100" height="100" fill="#ffffff" id="rect6" x="0" y="0" />
            <circle cx="50" cy="82" r="1.5" fill="#000000" id="circle6" />
        </mask>
    </defs>
    <g transform="matrix(0.81745931,0.73604367,-0.73604367,0.81745931,42.221862,-48.578886)"
        id="g12">
        <g mask="url(#feather-cuts)" id="g7"
            transform="matrix(-0.9945219,-0.10452846,-0.10452846,0.9945219,90.647588,4.750638)">
            <path d="m 35,10 c -7,15 5,50 12,60 h 2 C 49,50 44,20 35,10 Z" fill="#0D9488"
                id="path6" />
            <path d="m 35,10 c 11,10 16,40 16,60 h 2 C 58,60 55,25 35,10 Z" fill="#A16207"
                id="path7" />
        </g>
        <path d="m 36.692595,68.459811 -1.045284,9.945219 -1.989044,-0.209057 1.045285,-9.945219 z"
            fill="#0D9488" id="path8" />
        <path d="m 32.714508,68.041697 -1.045285,9.945219 -1.989044,-0.209057 1.045285,-9.945219 z"
            fill="#A16207" id="path9" />
        <g mask="url(#nib-hole)" id="g11"
            transform="matrix(-0.9945219,-0.10452846,-0.10452846,0.9945219,90.647588,4.750638)">
            <path d="m 47,78 -2,6 q 2,5 5,9 L 49,78 Z" fill="#0D9488" id="path10" />
            <path d="m 53,78 2,6 q -2,5 -5,9 l 1,-15 z" fill="#A16207" id="path11" />
        </g>
    </g>
</svg>
